<?xml version="1.0" encoding="UTF-8"?>
<svg width="22px" height="24px" viewBox="0 0 22 24" version="1.1" xmlns="http://www.w3.org/2000/svg" xmlns:xlink="http://www.w3.org/1999/xlink">
    <title>ideogram/equip/DF</title>
    <g id="UI-Guide" stroke="none" stroke-width="1" fill="none" fill-rule="evenodd">
        <g id="Library/guide03" transform="translate(-554.000000, -225.000000)" fill="#212227">
            <g id="ideogram/equip/DF" transform="translate(553.000000, 225.000000)">
                <path d="M20.980333,7.0199618 C21.6332994,8.68707141 22,10.5625386 22,12.5454545 C22,16.2299702 21.0161495,19.7048271 19,22 L19,22 L20,22 L20,24 L16,24 L16,22 L16,22 C17.6082527,20.1702339 19,17.2094809 19,14 C19,12.4585839 18.7490815,10.9986231 18.3051533,9.69471911 Z M8,22 C8.01547375,23.058832 8.01547375,23.7254987 8,24 L4,24 L4,23.999 L7.13827394,20.8623651 C7.41403598,21.2774686 7.70394099,21.6587228 8,22 Z M12,0 C14.5930443,0 16.9555737,1.23817503 18.7324323,3.26896566 L21,1 L23,3 L3,23 L1,21 L3.1255049,18.875289 C2.37129942,16.9947157 2,14.8098831 2,12.5454545 C2,5.61679132 6.4771525,0 12,0 Z M12,4 C8.22120961,4 5,8.4771525 5,14 C5,14.9173058 5.1169611,15.8176808 5.32144063,16.6785415 L16.0837048,5.91616536 C14.9234423,4.71112807 13.5060028,4 12,4 Z" id="Oval-Copy-4"></path>
            </g>
        </g>
    </g>
</svg>